<svg width="86" height="28" viewBox="0 0 86 28" fill="none" xmlns="http://www.w3.org/2000/svg">
<path id="Vector" d="M20.8714 4.13895C20.8714 4.13895 17.793 0.485822 14.6681 3.35761L11.0025 6.71885C11.0025 6.71885 7.79905 2.04555 4.82237 2.50846C4.82237 2.50846 4.73516 2.50846 4.58691 2.5173C2.0579 2.71485 0.421304 5.29474 1.19164 7.74786C1.42128 8.47317 1.81662 9.2722 2.49103 10.0506L5.45608 13.4944C5.45608 13.4944 6.83105 14.889 6.83105 17.976V22.2926C6.83105 24.6159 8.68856 26.5 10.9792 26.5C13.2699 26.5 15.1274 24.6159 15.1274 22.2926V17.8109C15.1274 17.8109 15.046 14.7917 17.0401 12.8369L25.0894 4.98811C25.0894 4.98811 33.1299 -2.92848 42.0192 5.0913M21.1505 13.745C21.1505 13.745 22.1011 25.2056 32.7113 25.698C32.7113 25.698 41.3216 26.6091 44.5221 18.2768C45.15 16.6433 45.429 14.892 45.429 13.1406V6.26773C45.429 3.63477 47.5336 1.50304 50.1266 1.50304C52.7225 1.50304 54.8242 3.63772 54.8242 6.26773V15.8414H58.2427C60.9345 15.8414 63.1176 18.0556 63.1176 20.7859C63.1176 23.5162 60.9345 25.7305 58.2427 25.7305H50.6935C50.6935 25.7305 47.4552 25.471 46.272 23.6429M61.2369 16.4753C61.2369 16.4753 59.9549 7.00484 67.914 3.3871C71.5506 1.73302 75.7685 1.80378 79.2539 3.76745C81.2975 4.91734 83.3439 6.84563 84.373 10.0712C85.6869 14.1873 84.9195 18.7515 82.2248 22.1068C79.7016 25.2499 75.0883 27.9536 66.9606 24.7958" stroke="#BB0707" stroke-width="1.61664" stroke-linejoin="round"/>
</svg>
